<svg width="244" height="52" viewBox="0 0 244 52" fill="none" xmlns="http://www.w3.org/2000/svg">
<g id="Group 5464">
<path id="Vector" fill-rule="evenodd" clip-rule="evenodd" d="M42.5137 51.0876L72.8554 51.0876V40.8386L52.728 40.8386V34.8468L72.8554 34.8468V8.35035L36.5423 8.35035V0L26.328 0V8.35693L0 8.35693L0 18.606H0.0720243L26.1578 51.0843L26.3149 50.9267V51.0876H36.5161V18.606H62.6149V24.5977H42.5137V51.0876ZM26.3149 35.1425L12.8923 18.606H26.3149L26.3149 35.1425Z" fill="#6638B6"/>
<g id="Lorem">
<path d="M90.85 9.69995V47.106H109.73V51H86.72V9.69995H90.85Z" fill="white"/>
<path d="M138.277 47.283C135.248 50.233 131.59 51.708 127.303 51.708C122.937 51.708 119.259 50.233 116.27 47.283C113.28 44.2936 111.786 40.616 111.786 36.25C111.786 31.884 113.28 28.226 116.27 25.276C119.259 22.2866 122.937 20.792 127.303 20.792C131.629 20.792 135.287 22.2866 138.277 25.276C141.305 28.226 142.82 31.884 142.82 36.25C142.82 40.5766 141.305 44.2543 138.277 47.283ZM119.043 44.569C121.285 46.811 124.038 47.932 127.303 47.932C130.567 47.932 133.321 46.811 135.563 44.569C137.805 42.2483 138.926 39.4753 138.926 36.25C138.926 32.9853 137.805 30.232 135.563 27.99C133.321 25.7086 130.567 24.568 127.303 24.568C124.038 24.568 121.285 25.7086 119.043 27.99C116.801 30.232 115.68 32.9853 115.68 36.25C115.68 39.4753 116.801 42.2483 119.043 44.569Z" fill="white"/>
<path d="M153.23 21.5V26.397C155.039 22.8176 158.147 21.028 162.552 21.028V24.804C159.72 24.804 157.458 25.63 155.767 27.282C154.076 28.8946 153.23 31.3333 153.23 34.598V51H149.336V21.5H153.23Z" fill="white"/>
<path d="M179.732 20.792C184.137 20.792 187.657 22.3456 190.293 25.453C193.007 28.521 194.364 32.1593 194.364 36.368C194.364 36.5646 194.324 37.1743 194.246 38.197H168.345C168.738 41.147 169.997 43.507 172.121 45.277C174.245 47.047 176.9 47.932 180.086 47.932C184.57 47.932 187.736 46.2603 189.585 42.917L193.007 44.923C191.709 47.047 189.919 48.7186 187.638 49.938C185.396 51.118 182.859 51.708 180.027 51.708C175.385 51.708 171.609 50.2526 168.699 47.342C165.788 44.4313 164.333 40.734 164.333 36.25C164.333 31.8053 165.768 28.1276 168.64 25.217C171.511 22.267 175.208 20.792 179.732 20.792ZM179.732 24.568C176.664 24.568 174.087 25.4726 172.003 27.282C169.957 29.0913 168.738 31.471 168.345 34.421H190.352C189.919 31.2743 188.719 28.8553 186.753 27.164C184.707 25.4333 182.367 24.568 179.732 24.568Z" fill="white"/>
<path d="M232.005 20.792C235.348 20.792 238.023 21.854 240.029 23.978C242.035 26.102 243.038 28.9733 243.038 32.592V51H239.144V32.592C239.144 30.0746 238.495 28.108 237.197 26.692C235.899 25.276 234.148 24.568 231.946 24.568C229.389 24.568 227.383 25.4136 225.928 27.105C224.472 28.7963 223.745 31.3136 223.745 34.657V51H219.851V32.592C219.851 30.0353 219.241 28.0686 218.022 26.692C216.802 25.276 215.111 24.568 212.948 24.568C210.47 24.568 208.424 25.4333 206.812 27.164C205.238 28.8946 204.452 31.3923 204.452 34.657V51H200.558V21.5H204.452V25.807C206.576 22.4636 209.585 20.792 213.479 20.792C217.766 20.792 220.755 22.5816 222.447 26.161C224.571 22.5816 227.757 20.792 232.005 20.792Z" fill="white"/>
</g>
</g>
</svg>
