<svg width="379" height="382" viewBox="0 0 379 382" fill="none" xmlns="http://www.w3.org/2000/svg">
<path d="M261.557 37.6296L245.289 31.5125L252.664 11.8535L245.499 9.15356L235.722 35.225L259.154 43.9998L261.557 37.6296Z" fill="white"/>
<path d="M272.767 52.6059C275.309 54.2335 278.195 55.2447 281.196 55.559C283.174 55.7046 285.16 55.4389 287.03 54.7787C288.9 54.1186 290.613 53.0782 292.062 51.7231C293.511 50.3679 294.664 48.7273 295.449 46.9045C296.233 45.0816 296.633 43.116 296.622 41.1311C296.547 38.5032 295.713 35.9532 294.219 33.7907C292.557 31.2993 290.334 29.2331 287.729 27.7579C285.176 26.1604 282.294 25.165 279.3 24.8471C276.673 24.5573 274.019 25.0516 271.672 26.2676C269.325 27.4836 267.389 29.3671 266.108 31.6813C264.649 33.89 263.871 36.4794 263.871 39.1273C263.871 41.7751 264.649 44.3646 266.108 46.5732C267.83 49.074 270.11 51.1394 272.767 52.6059ZM272.767 35.7312C273.475 34.4758 274.528 33.4506 275.802 32.7782C277.024 32.1581 278.401 31.9088 279.763 32.061C282.962 32.5444 285.84 34.2729 287.771 36.8703C288.532 38.0088 288.956 39.3398 288.993 40.7093C289.015 42.206 288.589 43.6751 287.771 44.928C287.066 46.1706 286.03 47.1929 284.779 47.881C283.553 48.4914 282.175 48.7262 280.817 48.556C279.227 48.3644 277.7 47.8164 276.35 46.9529C274.961 46.1571 273.766 45.0619 272.852 43.7467C272.079 42.6269 271.64 41.31 271.587 39.9499C271.552 38.4499 271.947 36.9712 272.725 35.6891L272.767 35.7312Z" fill="white"/>
<path d="M295.062 67.7935L301.805 60.4109L304.798 63.153L303.533 75.809L310.108 81.7995L311.119 68.3842C311.719 68.7729 312.372 69.0714 313.058 69.2701C314.621 69.8 316.302 69.8731 317.905 69.481C319.531 69.1015 321.001 68.2329 322.119 66.992C323.257 65.8385 324.021 64.3682 324.311 62.7733C324.556 61.1426 324.337 59.4758 323.679 57.964C322.96 56.1462 321.819 54.5263 320.349 53.2391L308.085 42.1018L289.288 62.6046L295.062 67.7935ZM317.273 59.3562C317.337 59.8018 317.294 60.2563 317.147 60.6819C317.001 61.1075 316.755 61.4918 316.43 61.803C316.146 62.1516 315.785 62.4286 315.375 62.6118C314.965 62.795 314.518 62.8792 314.07 62.8577C313.026 62.7774 312.049 62.3112 311.33 61.5499L305.641 56.2766L309.855 51.5516L315.587 56.7828C316.396 57.4091 316.951 58.3088 317.146 59.314L317.273 59.3562Z" fill="white"/>
<path d="M310.74 82.7275L326.376 103.357L331.349 99.56L320.686 85.554L325.069 83.1916L334.51 95.6367L338.935 92.2617L329.537 79.8588L332.951 76.2308L343.445 90.1524L348.418 86.3556L332.908 65.895L323.131 75.9777L310.74 82.7275Z" fill="white"/>
<path d="M331.686 112.258L350.82 103.61L335.479 120.569L338.682 127.699L361.651 127.319L342.433 136.009L345.425 142.675L370.797 131.2L365.908 120.358L343.908 121.075L358.954 104.96L354.023 94.1179L328.694 105.593L331.686 112.258Z" fill="white"/>
<path d="M374.847 150.168L347.553 155.538L349.033 163.072L376.326 157.702L374.847 150.168Z" fill="white"/>
<path d="M350.652 174.948L359.081 174.357L359.797 182.288C359.885 184.365 360.432 186.397 361.398 188.237C362.205 189.776 363.453 191.039 364.981 191.865C366.551 192.678 368.319 193.029 370.08 192.877C371.866 192.809 373.594 192.222 375.054 191.19C376.499 190.145 377.576 188.668 378.13 186.971C378.868 185.037 379.142 182.956 378.931 180.896L377.877 165.414L350.146 167.27L350.652 174.948ZM372.061 183.891C371.751 184.246 371.375 184.536 370.953 184.745C370.531 184.954 370.072 185.078 369.602 185.109C369.133 185.141 368.661 185.079 368.216 184.928C367.77 184.777 367.358 184.539 367.004 184.229C366.301 183.455 365.911 182.448 365.908 181.402L365.402 173.851L372.272 173.429L372.778 180.854C372.904 181.919 372.65 182.995 372.061 183.891Z" fill="white"/>
<path d="M375.896 199.88C374.654 198.599 372.995 197.806 371.218 197.644C370.145 197.474 369.047 197.561 368.014 197.899C366.981 198.236 366.043 198.814 365.276 199.585C363.373 201.874 362.147 204.651 361.736 207.6L360.682 212.705C360.496 213.931 360.066 215.107 359.418 216.164C359.212 216.43 358.94 216.636 358.629 216.762C358.318 216.888 357.98 216.929 357.648 216.881C356.72 216.881 356.088 216.164 355.709 215.025C355.416 213.535 355.416 212.002 355.709 210.511C355.839 209.322 356.137 208.157 356.594 207.052C356.925 206.191 357.46 205.424 358.153 204.816C358.749 204.319 359.487 204.023 360.261 203.972L361.188 196.21C359.315 196.032 357.438 196.509 355.878 197.56C354.159 198.753 352.792 200.384 351.916 202.285C350.805 204.592 350.107 207.077 349.851 209.625C349.395 212.093 349.395 214.624 349.851 217.092C350.295 219.062 351.272 220.872 352.674 222.324C353.951 223.666 355.676 224.492 357.521 224.644C358.953 224.914 360.433 224.706 361.736 224.053C363.007 223.323 364.023 222.218 364.644 220.889C365.594 218.933 366.288 216.863 366.709 214.73L367.889 209.288C368.056 208.162 368.458 207.084 369.069 206.124C369.261 205.865 369.518 205.662 369.815 205.536C370.111 205.41 370.435 205.365 370.755 205.407C371.202 205.463 371.619 205.661 371.945 205.973C372.272 206.284 372.489 206.692 372.567 207.136C372.864 208.527 372.864 209.964 372.567 211.355C372.483 212.47 372.227 213.566 371.808 214.603C371.521 215.374 371.06 216.067 370.46 216.628C369.957 217.076 369.319 217.343 368.648 217.388L367.762 225.108C369.545 225.243 371.319 224.751 372.778 223.716C374.388 222.534 375.678 220.968 376.529 219.16C377.552 216.961 378.207 214.61 378.467 212.199C378.835 209.808 378.835 207.375 378.467 204.985C378.096 203.079 377.207 201.312 375.896 199.88Z" fill="white"/>
<path d="M352.717 229.158C350.539 229.744 348.568 230.927 347.027 232.575C345.379 234.49 344.153 236.73 343.427 239.15C342.701 241.57 342.491 244.117 342.813 246.623C343.134 248.854 344.084 250.946 345.552 252.656C347.097 254.415 349.116 255.689 351.368 256.326L366.414 261.093L368.732 253.71L354.023 249.07C352.943 248.747 351.949 248.185 351.115 247.425C350.38 246.71 349.893 245.779 349.724 244.767C349.512 243.633 349.555 242.465 349.851 241.35C350.186 240.184 350.793 239.114 351.621 238.228C352.352 237.485 353.294 236.985 354.318 236.794C355.436 236.625 356.577 236.726 357.648 237.089L372.314 241.729L374.632 234.431L359.628 229.664C357.417 228.854 355.023 228.679 352.717 229.158Z" fill="white"/>
<path d="M335.226 262.316L353.222 273.116L330.506 270.163L326.544 276.829L339.947 295.517L321.824 284.675L318.073 290.961L341.97 305.262L348.038 295.053L334.931 277.377L356.72 280.541L362.831 270.332L338.977 256.031L335.226 262.316Z" fill="white"/>
<path d="M283.978 322.644L288.403 327.875L301.637 316.611L315.207 332.642L321.066 327.706L303.07 306.444L283.978 322.644Z" fill="white"/>
<path d="M285.706 329.225C283.399 328.017 280.798 327.491 278.204 327.706C275.218 327.945 272.331 328.885 269.775 330.448C267.133 331.863 264.854 333.87 263.116 336.312C261.635 338.471 260.775 340.996 260.629 343.61C260.536 346.294 261.224 348.947 262.61 351.246C263.88 353.622 265.832 355.562 268.216 356.815C270.531 358.042 273.148 358.584 275.76 358.376C278.712 358.08 281.572 357.179 284.161 355.727C286.75 354.275 289.012 352.305 290.805 349.938C292.293 347.767 293.154 345.227 293.292 342.598C293.366 339.911 292.663 337.259 291.269 334.962C290.005 332.553 288.073 330.561 285.706 329.225ZM284.315 346.563C283.377 347.839 282.168 348.891 280.775 349.643C279.414 350.503 277.868 351.023 276.265 351.162C274.899 351.309 273.519 351.044 272.304 350.402C271.056 349.7 270.044 348.643 269.396 347.365C268.602 346.105 268.206 344.635 268.258 343.146C268.318 341.781 268.772 340.463 269.564 339.35C270.522 338.049 271.761 336.981 273.189 336.228C274.548 335.399 276.074 334.88 277.656 334.709C279.026 334.585 280.403 334.864 281.618 335.511C282.877 336.193 283.904 337.236 284.568 338.506C285.344 339.772 285.726 341.24 285.664 342.724C285.601 344.109 285.132 345.444 284.315 346.563Z" fill="white"/>
<path d="M245.836 342.598L248.955 352.09L245.162 353.355L234.921 346.226L226.492 349.01L237.407 356.435C236.791 356.798 236.212 357.222 235.679 357.701C234.448 358.834 233.57 360.299 233.151 361.919C232.67 363.486 232.67 365.162 233.151 366.729C233.614 368.381 234.57 369.853 235.89 370.947C237.206 371.935 238.764 372.547 240.4 372.719C242.309 372.918 244.238 372.687 246.047 372.044L261.725 366.855L253.001 340.446L245.836 342.598ZM245.415 366.054C244.434 366.408 243.361 366.408 242.381 366.054C241.96 365.889 241.585 365.628 241.284 365.291C240.984 364.953 240.768 364.55 240.653 364.113C240.48 363.696 240.413 363.244 240.457 362.795C240.501 362.346 240.655 361.915 240.905 361.54C241.492 360.675 242.378 360.058 243.392 359.81L250.725 357.363L252.917 363.396L245.415 366.054Z" fill="white"/>
<path d="M224.932 348.968L199.35 352.469L200.193 358.671L217.641 356.266L217.515 361.244L202.09 363.354L202.848 368.88L218.274 366.729L219.706 371.496L202.469 373.858L203.312 380.06L228.726 376.558L224.764 363.016L224.932 348.968Z" fill="white"/>
<path d="M187.255 373.69L179.964 351.963L172.167 351.331L161.293 371.622L163.106 350.571L155.814 349.938L153.454 377.697L165.297 378.668L175.412 359.135L182.113 380.102L193.956 381.114L196.316 353.398L189.025 352.765L187.255 373.69Z" fill="white"/>
<path d="M136.009 343.447L127.386 369.899L134.673 372.279L143.296 345.828L136.009 343.447Z" fill="white"/>
<path d="M125.006 338.759L121.298 346.563L114.133 343.146C112.293 342.196 110.261 341.676 108.19 341.628C106.446 341.597 104.731 342.082 103.259 343.02C101.777 343.989 100.607 345.366 99.8878 346.985C99.0867 348.575 98.7506 350.359 98.9184 352.132C99.181 353.889 99.9753 355.524 101.194 356.815C102.552 358.383 104.234 359.635 106.125 360.485L120.244 367.193L132.171 341.881L125.006 338.759ZM106.757 353.06C106.563 352.629 106.463 352.162 106.463 351.689C106.463 351.216 106.563 350.749 106.757 350.318C106.939 349.884 107.214 349.496 107.564 349.182C107.914 348.869 108.33 348.637 108.78 348.504C109.796 348.27 110.862 348.42 111.773 348.926L118.516 352.132L115.566 358.334L108.991 355.254C108.009 354.813 107.217 354.035 106.757 353.06Z" fill="white"/>
<path d="M91.2481 332.515L87.3286 329.098C86.3598 328.342 85.5565 327.394 84.9685 326.314C84.8238 326.009 84.7668 325.67 84.804 325.335C84.8412 324.999 84.9712 324.681 85.1792 324.415C85.4723 324.033 85.8791 323.753 86.3411 323.617C86.8031 323.48 87.2964 323.494 87.7501 323.656C89.2946 323.989 90.7387 324.683 91.9646 325.681C92.9378 326.365 93.8042 327.189 94.5354 328.128C95.1047 328.846 95.5077 329.682 95.7155 330.575C95.8545 331.346 95.7515 332.142 95.4205 332.853L101.742 337.451C102.824 335.902 103.317 334.017 103.133 332.136C102.942 330.052 102.201 328.057 100.984 326.356C99.5118 324.242 97.6699 322.413 95.5469 320.956C93.458 319.393 91.0801 318.26 88.5508 317.623C86.6044 317.1 84.5548 317.1 82.6084 317.623C80.8963 318.167 79.4136 319.265 78.3939 320.745C77.5339 321.851 77.0205 323.187 76.9188 324.584C76.9095 326.098 77.3818 327.576 78.2674 328.803C79.4568 330.558 80.8741 332.147 82.4819 333.528L86.6964 337.24C87.6129 337.92 88.3624 338.8 88.888 339.814C89.043 340.091 89.1244 340.403 89.1244 340.721C89.1244 341.038 89.043 341.35 88.888 341.628C88.6036 341.985 88.2184 342.248 87.7825 342.384C87.3466 342.519 86.8801 342.52 86.4436 342.387C85.0909 342.014 83.8287 341.368 82.7348 340.489C81.7249 339.801 80.841 338.945 80.1218 337.957C79.5889 337.317 79.2007 336.568 78.9839 335.764C78.852 335.107 78.9409 334.424 79.2368 333.823L72.9571 329.267C71.9736 330.698 71.5258 332.431 71.6928 334.161C71.9227 336.15 72.6472 338.05 73.8 339.687C75.2048 341.648 76.9286 343.36 78.8996 344.749C80.8386 346.214 83.0021 347.353 85.3057 348.124C87.1075 348.751 89.0471 348.868 90.911 348.462C92.6341 348.012 94.1332 346.947 95.1255 345.467C95.7888 344.62 96.2417 343.628 96.4469 342.572C96.652 341.515 96.6036 340.425 96.3055 339.392C95.3031 336.667 93.5495 334.283 91.2481 332.515Z" fill="white"/>
<path d="M76.8766 314.079C77.485 311.914 77.485 309.622 76.8766 307.456C76.0806 305.045 74.7393 302.851 72.9571 301.044C71.2502 299.172 69.1282 297.727 66.7618 296.825C64.6241 295.959 62.2798 295.739 60.0186 296.192C57.7176 296.671 55.6075 297.815 53.9497 299.483L42.4862 310.283L47.7544 315.893L59.0493 305.347C59.8547 304.552 60.8368 303.959 61.9151 303.617C62.8876 303.301 63.935 303.301 64.9074 303.617C66.0472 304.073 67.0699 304.779 67.8997 305.684C68.7514 306.55 69.3868 307.606 69.7541 308.764C70.0702 309.752 70.0702 310.814 69.7541 311.801C69.3533 312.868 68.703 313.823 67.8576 314.586L56.647 325.132L61.9151 330.743L73.3786 319.901C75.0529 318.316 76.2625 316.303 76.8766 314.079Z" fill="white"/>
<path d="M56.4784 282.566L38.3138 293.071L51.9267 274.677L48.0072 267.927L25.1645 270.543L43.4555 259.996L39.7889 253.668L15.724 267.59L21.6243 277.883L43.4555 275.015L30.0955 292.522L36.038 302.816L60.1028 288.894L56.4784 282.566Z" fill="white"/>
<path d="M28.8312 208.359L22.1301 209.667L25.4596 226.711L4.85059 230.718L6.32567 238.27L33.5936 232.996L28.8312 208.359Z" fill="white"/>
<path d="M14.7969 208.992C17.48 208.98 20.1067 208.221 22.383 206.799C24.5611 205.354 26.2854 203.321 27.3561 200.935C28.5115 198.176 29.0854 195.209 29.0419 192.218C28.9984 189.227 28.3384 186.277 27.1033 183.554C25.9041 181.289 24.1122 179.393 21.9194 178.07C19.624 176.683 16.9696 176.007 14.2911 176.129C11.6021 176.099 8.96376 176.862 6.70502 178.323C4.55842 179.712 2.83732 181.669 1.73189 183.976C0.507984 186.719 -0.0688401 189.707 0.0460837 192.708C0.0490825 195.636 0.726943 198.523 2.02691 201.146C3.15348 203.514 4.93882 205.506 7.16861 206.883C9.46222 208.291 12.1064 209.022 14.7969 208.992ZM7.75865 187.899C8.2928 186.641 9.1874 185.569 10.3295 184.819C11.5992 184.05 13.0601 183.655 14.544 183.68C16.0153 183.621 17.4742 183.972 18.7585 184.693C19.9135 185.408 20.8473 186.431 21.4558 187.646C22.6627 190.636 22.6627 193.979 21.4558 196.969C20.9265 198.242 20.0318 199.328 18.885 200.091C17.6153 200.86 16.1544 201.255 14.6705 201.23C13.1996 201.285 11.7419 200.934 10.4559 200.218C9.31067 199.485 8.39142 198.448 7.80079 197.222C6.56682 194.237 6.56682 190.884 7.80079 187.899H7.75865Z" fill="white"/>
<path d="M30.3063 165.414L20.4864 163.515L21.1186 159.592L32.3292 154.15L34.015 145.375L22.2144 151.323C22.1952 150.614 22.1105 149.908 21.9615 149.214C21.5726 147.619 20.7567 146.16 19.6014 144.995C18.4436 143.872 16.9753 143.122 15.3869 142.844C13.7515 142.496 12.0498 142.643 10.498 143.266C9.00803 143.939 7.71628 144.985 6.74712 146.303C5.66644 147.889 4.93387 149.686 4.59771 151.576L1.52112 167.734L28.8733 173.007L30.3063 165.414ZM11.4252 150.986C11.7722 150.698 12.1812 150.495 12.6201 150.392C13.0589 150.29 13.5155 150.291 13.9539 150.395C14.4023 150.457 14.83 150.622 15.2032 150.879C15.5763 151.135 15.8846 151.475 16.1033 151.872C16.5346 152.809 16.6385 153.864 16.3984 154.867L14.9233 162.503L8.47507 161.195L9.908 153.559C10.1134 152.556 10.6474 151.651 11.4252 150.986Z" fill="white"/>
<path d="M34.6893 144.067L44.0876 119.978L38.2716 117.7L31.9077 134.111L27.6089 131.58L33.2985 117.067L28.1146 115.042L22.425 129.555L17.5783 128.542L23.9422 112.3L18.1262 110.022L8.81213 133.942L22.5093 137.022L34.6893 144.067Z" fill="white"/>
<path d="M48.9343 110.782L31.5705 98.9696L54.0339 103.23L58.417 96.7759L46.0685 77.3278L63.5165 89.2245L67.6468 83.1496L44.6355 67.4983L37.9766 77.3278L50.0301 95.7634L28.4518 91.3338L21.7928 101.163L44.8041 116.815L48.9343 110.782Z" fill="white"/>
<path d="M64.2823 48.838L58.6488 54.0488L77.5266 74.4981L83.1601 69.2872L64.2823 48.838Z" fill="white"/>
<path d="M92.4282 61.7184L87.4129 54.6732L93.8611 50.0749C95.5795 48.9151 97.019 47.3877 98.0757 45.6031C98.9763 44.1055 99.4024 42.3699 99.2979 40.625C99.1142 38.8642 98.478 37.181 97.4514 35.7393C96.4248 34.2977 95.0427 33.1468 93.4397 32.3986C91.8928 31.762 90.1952 31.5862 88.5509 31.8924C86.5189 32.3123 84.6048 33.1767 82.9455 34.4236L70.302 43.4937L86.4436 66.1902L92.4282 61.7184ZM85.8957 39.7391C86.7212 39.092 87.758 38.7761 88.8037 38.8532C89.2733 38.9011 89.726 39.0551 90.1275 39.3035C90.529 39.552 90.869 39.8885 91.1217 40.2876C91.4115 40.6587 91.6148 41.0899 91.7169 41.5497C91.819 42.0095 91.8172 42.4863 91.7117 42.9453C91.4332 43.9584 90.7869 44.8309 89.8995 45.3922L83.8306 49.6108L79.8268 44.0422L85.8957 39.7391Z" fill="white"/>
<path d="M105.62 36.3642C108.549 36.826 111.549 36.4305 114.259 35.2251L119.19 33.4533C120.318 32.955 121.541 32.7101 122.773 32.7361C123.105 32.769 123.423 32.8873 123.696 33.0795C123.97 33.2717 124.189 33.5312 124.332 33.833C124.52 34.2828 124.564 34.7797 124.458 35.2555C124.352 35.7313 124.102 36.1628 123.742 36.4907C122.671 37.5737 121.396 38.434 119.991 39.0219C118.924 39.5345 117.788 39.8898 116.62 40.0766C115.72 40.2966 114.78 40.2966 113.88 40.0766C113.142 39.8425 112.504 39.3671 112.068 38.7266L104.987 42.0172C105.807 43.7051 107.195 45.0495 108.907 45.814C110.825 46.6614 112.935 46.9817 115.018 46.7421C117.581 46.475 120.077 45.7612 122.393 44.6328C124.684 43.6137 126.77 42.1839 128.547 40.4141C129.987 39.0152 131.022 37.2509 131.539 35.3095C131.996 33.5109 131.786 31.6076 130.949 29.9518C130.422 28.654 129.51 27.5495 128.336 26.7878C127.049 26.0881 125.575 25.8079 124.121 25.9862C122.051 26.1846 120.012 26.6381 118.052 27.3362L112.826 29.1502C111.777 29.6085 110.642 29.8386 109.497 29.8252C109.18 29.7945 108.877 29.6809 108.618 29.4958C108.359 29.3106 108.154 29.0605 108.022 28.7706C107.792 28.3658 107.696 27.8983 107.749 27.4356C107.802 26.973 108.001 26.5392 108.317 26.1972C109.302 25.1889 110.476 24.386 111.773 23.8347C112.776 23.3564 113.839 23.0158 114.934 22.8222C115.737 22.6288 116.575 22.6288 117.378 22.8222C118.025 23.0105 118.581 23.4311 118.937 24.0035L126.018 20.6707C125.171 19.1746 123.852 18.0023 122.267 17.3379C120.416 16.5702 118.401 16.2801 116.409 16.4942C114.054 16.7818 111.763 17.4515 109.623 18.477C107.406 19.4734 105.358 20.8115 103.555 22.4425C102.125 23.7055 101.074 25.3414 100.52 27.1675C100.096 28.9083 100.289 30.7428 101.068 32.3564C101.47 33.3285 102.089 34.1952 102.878 34.89C103.667 35.5849 104.605 36.0892 105.62 36.3642Z" fill="white"/>
<path d="M161.251 25.6487C161.907 23.3892 161.907 20.9896 161.251 18.7301L157.542 3.41626L150.041 5.31466L153.792 20.2488C154.063 21.3573 154.063 22.5151 153.792 23.6237C153.583 24.6255 153.05 25.5302 152.274 26.1971C151.314 26.9349 150.212 27.4658 149.037 27.7562C147.862 28.0466 146.64 28.0903 145.447 27.8846C144.453 27.59 143.572 27.0018 142.918 26.1971C142.196 25.314 141.691 24.2737 141.443 23.1597L137.692 8.22555L130.275 10.0818L134.068 25.3956C134.599 27.6761 135.751 29.7644 137.397 31.4283C139.022 33.0554 141.088 34.1701 143.34 34.6345C145.779 35.2047 148.317 35.2047 150.757 34.6345C153.255 34.0908 155.584 32.947 157.542 31.3017C159.312 29.8279 160.603 27.8599 161.251 25.6487Z" fill="white"/>
<path d="M174.78 29.2769L174.443 8.26794L183.925 29.1082L191.68 28.9816L200.488 7.71951L200.826 28.8551L208.117 28.7285L207.695 0.885254L195.81 1.054L187.718 21.5568L178.91 1.34931L167.025 1.56024L167.489 29.3613L174.78 29.2769Z" fill="white"/>
</svg>
